<svg width="1600" height="900" viewBox="0 0 1600 900" fill="none" xmlns="http://www.w3.org/2000/svg">
  <rect width="1600" height="900" fill="#050912"/>
  <rect width="1600" height="900" fill="url(#spaceGlow)"/>
  <circle cx="305" cy="162" r="240" fill="url(#nebulaLeft)" opacity="0.42"/>
  <circle cx="1248" cy="218" r="210" fill="url(#nebulaRight)" opacity="0.28"/>
  <circle cx="1016" cy="736" r="260" fill="url(#nebulaBottom)" opacity="0.22"/>
  <g fill="#F7F9FC">
    <circle cx="98" cy="106" r="1.3"/>
    <circle cx="176" cy="214" r="1.2"/>
    <circle cx="248" cy="126" r="1.1"/>
    <circle cx="366" cy="292" r="1.4"/>
    <circle cx="428" cy="96" r="1.2"/>
    <circle cx="512" cy="208" r="1.4"/>
    <circle cx="604" cy="118" r="1.2"/>
    <circle cx="684" cy="248" r="1.1"/>
    <circle cx="784" cy="88" r="1.4"/>
    <circle cx="864" cy="182" r="1.2"/>
    <circle cx="924" cy="302" r="1.5"/>
    <circle cx="1046" cy="134" r="1.2"/>
    <circle cx="1124" cy="232" r="1.4"/>
    <circle cx="1226" cy="94" r="1.1"/>
    <circle cx="1316" cy="196" r="1.4"/>
    <circle cx="1428" cy="118" r="1.2"/>
    <circle cx="1492" cy="252" r="1.5"/>
    <circle cx="196" cy="446" r="1.2"/>
    <circle cx="314" cy="524" r="1.4"/>
    <circle cx="448" cy="418" r="1.2"/>
    <circle cx="568" cy="566" r="1.4"/>
    <circle cx="726" cy="426" r="1.1"/>
    <circle cx="814" cy="514" r="1.4"/>
    <circle cx="948" cy="468" r="1.2"/>
    <circle cx="1082" cy="566" r="1.4"/>
    <circle cx="1208" cy="454" r="1.2"/>
    <circle cx="1324" cy="516" r="1.5"/>
    <circle cx="1464" cy="430" r="1.2"/>
    <circle cx="158" cy="742" r="1.3"/>
    <circle cx="286" cy="666" r="1.1"/>
    <circle cx="396" cy="804" r="1.4"/>
    <circle cx="548" cy="708" r="1.3"/>
    <circle cx="668" cy="820" r="1.1"/>
    <circle cx="824" cy="688" r="1.4"/>
    <circle cx="932" cy="798" r="1.2"/>
    <circle cx="1088" cy="690" r="1.5"/>
    <circle cx="1186" cy="808" r="1.2"/>
    <circle cx="1312" cy="702" r="1.4"/>
    <circle cx="1452" cy="806" r="1.1"/>
  </g>
  <g stroke="#F5EDE0" stroke-opacity="0.28">
    <path d="M122 184L126 184"/>
    <path d="M124 182L124 186"/>
    <path d="M954 166L958 166"/>
    <path d="M956 164L956 168"/>
    <path d="M1418 324L1422 324"/>
    <path d="M1420 322L1420 326"/>
    <path d="M742 604L746 604"/>
    <path d="M744 602L744 606"/>
    <path d="M1188 734L1192 734"/>
    <path d="M1190 732L1190 736"/>
  </g>
  <defs>
    <radialGradient id="spaceGlow" cx="0" cy="0" r="1" gradientUnits="userSpaceOnUse" gradientTransform="translate(800 210) rotate(90) scale(760 1460)">
      <stop stop-color="#0B1423"/>
      <stop offset="1" stop-color="#050912"/>
    </radialGradient>
    <radialGradient id="nebulaLeft" cx="0" cy="0" r="1" gradientUnits="userSpaceOnUse" gradientTransform="translate(305 162) rotate(90) scale(240)">
      <stop stop-color="#32506C"/>
      <stop offset="1" stop-color="#32506C" stop-opacity="0"/>
    </radialGradient>
    <radialGradient id="nebulaRight" cx="0" cy="0" r="1" gradientUnits="userSpaceOnUse" gradientTransform="translate(1248 218) rotate(90) scale(210)">
      <stop stop-color="#5B6A8D"/>
      <stop offset="1" stop-color="#5B6A8D" stop-opacity="0"/>
    </radialGradient>
    <radialGradient id="nebulaBottom" cx="0" cy="0" r="1" gradientUnits="userSpaceOnUse" gradientTransform="translate(1016 736) rotate(90) scale(260)">
      <stop stop-color="#B58956"/>
      <stop offset="1" stop-color="#B58956" stop-opacity="0"/>
    </radialGradient>
  </defs>
</svg>
